{
  "asset": {
    "generator": "FBX2glTF v0.13.1",
    "version": "2.0"
  },
  "scene": 0,
  "buffers": [
    {
      "byteLength": 3564,
      "uri": "SM_Buildings_Column_1x3_01.bin"
    }
  ],
  "bufferViews": [
    {
      "buffer": 0,
      "byteLength": 4,
      "byteOffset": 0
    },
    {
      "buffer": 0,
      "byteLength": 360,
      "byteOffset": 4,
      "target": 34963
    },
    {
      "buffer": 0,
      "byteLength": 1200,
      "byteOffset": 364,
      "target": 34962
    },
    {
      "buffer": 0,
      "byteLength": 1200,
      "byteOffset": 1564,
      "target": 34962
    },
    {
      "buffer": 0,
      "byteLength": 800,
      "byteOffset": 2764,
      "target": 34962
    }
  ],
  "scenes": [
    {
      "name": "Root Scene",
      "nodes": [
        0
      ]
    }
  ],
  "accessors": [
    {
      "componentType": 5126,
      "type": "SCALAR",
      "count": 1,
      "bufferView": 0,
      "byteOffset": 0,
      "min": [
        0
      ],
      "max": [
        0
      ]
    },
    {
      "componentType": 5123,
      "type": "SCALAR",
      "count": 180,
      "bufferView": 1,
      "byteOffset": 0
    },
    {
      "componentType": 5126,
      "type": "VEC3",
      "count": 100,
      "bufferView": 2,
      "byteOffset": 0,
      "min": [
        -0.199999988079071,
        0,
        0
      ],
      "max": [
        0,
        3,
        0.199999988079071
      ]
    },
    {
      "componentType": 5126,
      "type": "VEC3",
      "count": 100,
      "bufferView": 3,
      "byteOffset": 0
    },
    {
      "componentType": 5126,
      "type": "VEC2",
      "count": 100,
      "bufferView": 4,
      "byteOffset": 0
    }
  ],
  "samplers": [
    {}
  ],
  "materials": [
    {
      "name": "PolygonPrototype_Texture_01",
      "alphaMode": "OPAQUE",
      "doubleSided": false,
      "extras": {
        "fromFBX": {
          "shadingModel": "Phong",
          "isTruePBR": false
        }
      },
      "pbrMetallicRoughness": {
        "baseColorFactor": [
          1,
          1,
          1,
          1
        ],
        "metallicFactor": 0.400000005960464,
        "roughnessFactor": 0.490532398223877,
        "baseColorTexture": {
          "index": 0,
          "texCoord": 0
        }
      }
    }
  ],
  "meshes": [
    {
      "name": "SM_Buildings_Column_1x3_01P",
      "primitives": [
        {
          "material": 0,
          "mode": 4,
          "attributes": {
            "NORMAL": 3,
            "POSITION": 2,
            "TEXCOORD_0": 4
          },
          "indices": 1
        }
      ]
    }
  ],
  "animations": [
    {
      "name": "Take 001",
      "channels": [],
      "samplers": []
    }
  ],
  "nodes": [
    {
      "name": "RootNode",
      "translation": [
        0,
        0,
        0
      ],
      "rotation": [
        0,
        0,
        0,
        1
      ],
      "scale": [
        1,
        1,
        1
      ],
      "children": [
        1
      ]
    },
    {
      "name": "SM_Buildings_Column_1x3_01P",
      "translation": [
        0,
        0,
        0
      ],
      "rotation": [
        0,
        0,
        0,
        1
      ],
      "scale": [
        1,
        1,
        1
      ],
      "mesh": 0
    }
  ],
  "images": [
    {
      "uri": "../textures/PolygonPrototype_Texture_01.png",
      "name": "PolygonPrototype_Texture_01.png"
    }
  ],
  "textures": [
    {
      "source": 0,
      "sampler": 0,
      "name": "PolygonPrototype_Texture_01"
    }
  ]
}