{
  "asset": {
    "generator": "FBX2glTF v0.13.1",
    "version": "2.0"
  },
  "scene": 0,
  "buffers": [
    {
      "byteLength": 14340,
      "uri": "SM_Note_Done_01.bin"
    }
  ],
  "bufferViews": [
    {
      "buffer": 0,
      "byteLength": 4,
      "byteOffset": 0
    },
    {
      "buffer": 0,
      "byteLength": 2880,
      "byteOffset": 4,
      "target": 34963
    },
    {
      "buffer": 0,
      "byteLength": 4296,
      "byteOffset": 2884,
      "target": 34962
    },
    {
      "buffer": 0,
      "byteLength": 4296,
      "byteOffset": 7180,
      "target": 34962
    },
    {
      "buffer": 0,
      "byteLength": 2864,
      "byteOffset": 11476,
      "target": 34962
    }
  ],
  "scenes": [
    {
      "name": "Root Scene",
      "nodes": [
        0
      ]
    }
  ],
  "accessors": [
    {
      "componentType": 5126,
      "type": "SCALAR",
      "count": 1,
      "bufferView": 0,
      "byteOffset": 0,
      "min": [
        0
      ],
      "max": [
        0
      ]
    },
    {
      "componentType": 5123,
      "type": "SCALAR",
      "count": 1440,
      "bufferView": 1,
      "byteOffset": 0
    },
    {
      "componentType": 5126,
      "type": "VEC3",
      "count": 358,
      "bufferView": 2,
      "byteOffset": 0,
      "min": [
        -0.252129644155502,
        -0.456700891256332,
        -0.00643770210444927
      ],
      "max": [
        0.250598758459091,
        0.0446631275117397,
        0.0700907632708549
      ]
    },
    {
      "componentType": 5126,
      "type": "VEC3",
      "count": 358,
      "bufferView": 3,
      "byteOffset": 0
    },
    {
      "componentType": 5126,
      "type": "VEC2",
      "count": 358,
      "bufferView": 4,
      "byteOffset": 0
    }
  ],
  "samplers": [
    {}
  ],
  "materials": [
    {
      "name": "PolygonPrototype_Texture_01",
      "alphaMode": "OPAQUE",
      "doubleSided": false,
      "extras": {
        "fromFBX": {
          "shadingModel": "Lambert",
          "isTruePBR": false
        }
      },
      "pbrMetallicRoughness": {
        "baseColorFactor": [
          1,
          1,
          1,
          1
        ],
        "metallicFactor": 0.200000002980232,
        "roughnessFactor": 0.800000011920929,
        "baseColorTexture": {
          "index": 0,
          "texCoord": 0
        }
      }
    }
  ],
  "meshes": [
    {
      "name": "SM_Note_Done_01",
      "primitives": [
        {
          "material": 0,
          "mode": 4,
          "attributes": {
            "NORMAL": 3,
            "POSITION": 2,
            "TEXCOORD_0": 4
          },
          "indices": 1
        }
      ]
    }
  ],
  "animations": [
    {
      "name": "Take 001",
      "channels": [],
      "samplers": []
    }
  ],
  "nodes": [
    {
      "name": "RootNode",
      "translation": [
        0,
        0,
        0
      ],
      "rotation": [
        0,
        0,
        0,
        1
      ],
      "scale": [
        1,
        1,
        1
      ],
      "children": [
        1
      ]
    },
    {
      "name": "SM_Note_Done_01",
      "translation": [
        0,
        0,
        0
      ],
      "rotation": [
        0,
        0,
        0,
        1
      ],
      "scale": [
        1,
        1,
        1
      ],
      "mesh": 0
    }
  ],
  "images": [
    {
      "uri": "../textures/PolygonPrototype_Texture_01.png",
      "name": "PolygonPrototype_Texture_01.png"
    }
  ],
  "textures": [
    {
      "source": 0,
      "sampler": 0,
      "name": "PolygonPrototype_Texture_01"
    }
  ]
}